<svg xmlns="http://www.w3.org/2000/svg" viewBox="0 0 55 55">
            <g id="Artboard" transform="translate(-529.000000, -905.000000)">
                <g id="Row02" transform="translate(529.000000, 16.000000)">
                    <g id="Game-Modes" transform="translate(0.000000, 852.000000)">
                        <g id="Practice-Range" transform="translate(0.000000, 37.000000)">
                            <path d="M40.2935533,43.3156371 C40.1068147,43.0307165 39.9489533,42.727507 39.8218941,42.4108216 C39.253978,41.9295367 38.0690546,41.5348832 37.5588927,41.0728497 C37.0140782,40.4154146 36.7031682,39.5972303 36.6733286,38.743431 C36.4529001,36.9434256 36.4047716,34.9894091 36.2603862,33.2567836 C36.596323,33.2567836 36.7118313,33.1412753 37.0294794,33.179778 C37.6397486,32.5685463 38.1797502,31.8899346 38.6369708,31.1583816 C38.9209288,30.7897174 39.1538707,30.3844756 39.3309835,29.9551695 C39.4378288,29.2890713 39.4378288,28.6104596 39.3309835,27.9433988 C39.2106623,27.5131301 38.9863836,27.1194391 38.6754736,26.7979408 C38.1662742,26.3551588 37.5973955,26.6824325 37.0400676,26.7401867 C37.0776078,24.8699137 36.893757,23.0025285 36.4914029,21.1765337 C36.4432744,20.7905433 36.3691565,20.4074405 36.2690493,20.0310757 C36.1025247,19.7856205 35.9186739,19.5507535 35.7213471,19.3283999 C35.547122,19.0781317 35.3931108,18.7219809 35.229474,18.5102156 C34.600916,17.7815503 33.8481864,17.169356 33.0069005,16.7005845 C31.6467895,15.8775874 30.0912769,15.4290299 28.5020743,15.4011154 L27.6829274,15.4011154 C26.0176818,16.3636851 24.4785329,15.9209031 23.2271922,16.6139533 C22.9230202,16.8045421 22.6332867,17.0163074 22.3608795,17.2492493 C22.0817343,17.4706403 21.7246209,17.6631543 21.4839785,17.894171 C21.2866517,18.1511771 21.1066511,18.4216592 20.9449394,18.7027295 C20.7620512,18.9626234 20.4636546,19.1936401 20.3491088,19.4054054 C20.2336004,19.6171708 20.0988407,20.0599528 19.9640809,20.3679751 C19.6666469,21.1341806 19.5001223,21.9437018 19.4731703,22.7647737 C19.3769134,24.0642428 19.2517793,25.4599689 19.2036508,26.951952 C18.7897458,26.8056414 18.3902794,26.6217906 18.0100644,26.4032873 C17.7405449,26.5187956 17.5951968,26.8075665 17.4123086,27.0578347 C17.2303829,27.3081028 16.9801148,27.5198681 16.9223606,27.7605106 C16.8819327,28.3226513 16.9011841,28.8876797 16.9801148,29.4450076 C17.1918801,30.9947448 18.4528464,31.8899346 19.0968056,33.0353926 C19.4346676,33.1191361 19.758091,33.2490831 20.0593753,33.4204205 C20.1277177,34.3829902 19.6271815,35.2300515 19.5203363,36.2503754 C19.4587318,36.9386128 19.4587318,37.631663 19.5203363,38.3199003 C19.6175558,38.7877092 19.6878234,39.2593684 19.7330642,39.7348778 C19.7330642,40.1584085 19.4635446,40.553062 19.4250419,40.9284642 C18.1583001,41.6167016 17.2371209,42.80355 16.8838578,44.2012013 C11.5512216,40.6781961 8.03784214,35.6150794 7.76736005,28.8770914 L9.87538772,28.8770914 L9.87538772,27.9626502 L9.87538772,26.951952 L7.77794832,26.951952 C8.23998178,16.3636851 16.3640702,6.737988 26.952337,6.27595454 L26.952337,8.39360791 L27.9149067,8.39360791 L28.8774764,8.39360791 L28.8774764,6.27595454 C38.5031736,6.737988 47.7428803,16.3636851 48.2058763,26.951952 L46.0968861,26.951952 L46.0968861,27.9626502 L46.0968861,28.8770914 L48.2058763,28.8770914 C47.8487629,34.6284455 44.9485404,39.9206537 40.2935533,43.3156371 Z M33.0636921,30.1958119 L31.7651856,31.4567783 L27.9149067,27.6064994 L24.0646279,31.4567783 L22.8036616,30.1958119 L26.6539404,26.3455331 L22.8036616,22.4952542 L24.0646279,21.2342879 L27.9149067,25.0845667 L31.7651856,21.2342879 L33.0251893,22.4952542 L29.1749105,26.3455331 L33.0636921,30.1958119 Z M52.3150864,26.951952 C51.8443898,14.4385457 41.3908827,2.61818962 28.8774764,2.17540755 L28.8774764,0 L26.952337,0 L26.952337,2.17540755 C14.4389307,2.61818962 4.13847223,14.4385457 3.66777564,26.951952 L0.000385027886,26.951952 L0.000385027886,28.8770914 L3.66777564,28.8770914 C4.08168062,41.3904977 13.476361,50.3808988 26.952337,50.8140552 L26.952337,54.8664737 L28.8774764,54.8664737 L28.8774764,50.8140552 C41.3908827,50.3808988 51.902144,41.3904977 52.3150864,28.8770914 L54.8668587,28.8770914 L54.8668587,26.951952 L52.3150864,26.951952 Z"></path>
                        </g>
                    </g>
                </g>
            </g>
        </svg>