<svg xmlns="http://www.w3.org/2000/svg" viewBox="0 0 50 60">
            <g id="Artboard" transform="translate(-529.000000, -1172.000000)">
                <g id="Row02" transform="translate(529.000000, 16.000000)">
                    <g id="Game-Modes" transform="translate(0.000000, 852.000000)">
                        <path d="M15.7765203,304 L15.7765203,320.249816 L17.1006963,320.522224 L17.1006963,324.624119 L18.5637056,324.887061 L18.5637056,327.21252 L15.5135783,327.21252 L15.5135783,328.737584 L12.6201645,328.737584 L12.6201645,330.483519 L9.71833652,330.483519 L9.71833652,331.535287 L7.09943415,331.535287 L7.09943415,333.249669 L5.63642483,333.249669 L5.63642483,334.826269 L2.67043901,334.826269 L2.67043901,336.23669 L1.28315699,336.23669 L1.28315699,337.571383 L0,337.571383 L0,339.369907 L12.6201645,339.369907 L12.6201645,340.643598 L11.3159721,340.643598 L11.3159721,343.461284 L9.85506637,343.461284 L9.85506637,347.836639 L8.49828562,347.836639 L8.49828562,353.957929 L9.87504996,353.957929 L9.87504996,352.591683 L12.7474284,352.591683 L12.7474284,361.111004 L14.4933633,361.111004 L14.4933633,359.90147 L15.9132502,359.90147 L15.9132502,357.051179 L17.2384779,357.051179 L17.2384779,358.428995 L19.931004,358.428995 L19.931004,359.943541 L21.4234628,359.943541 L21.4234628,361.078399 L22.9485265,361.078399 L22.9485265,362.709691 L25.7988178,362.709691 L25.7988178,363.950777 L33.7501841,363.950777 L33.7501841,362.740192 L36.5584047,362.740192 L36.5584047,361.341341 L38.093986,361.341341 L38.093986,359.743705 L39.6411368,359.743705 L39.6411368,358.228107 L41.1767181,358.228107 L41.1767181,356.935485 L43.942868,356.935485 L43.942868,355.419887 L45.3522371,355.419887 L45.3522371,348.058562 L46.8562654,348.058562 L46.8562654,345.018953 L48.1604577,345.018953 L48.1604577,341.652243 L46.8236606,341.652243 L46.8236606,337.951072 L45.6151791,337.951072 L45.6151791,336.51015 L46.8457477,336.51015 L46.8457477,335.079745 L48.0763163,335.079745 L48.0763163,332.145312 L50,332.145312 L50,330.37729 L42.6376238,330.37729 L42.6376238,326.012453 L41.1020425,326.012453 L41.1020425,324.488441 L39.5033551,324.488441 L39.5033551,323.088538 L38.1160731,323.088538 L38.1160731,321.48985 L36.516334,321.48985 L36.516334,320.090999 L35.0869812,320.090999 L35.0869812,318.682682 L33.5093292,318.682682 L33.5093292,317.10503 L32.1104777,317.10503 L32.1104777,315.705126 L30.5002209,315.705126 L30.5002209,314.275774 L29.1118871,314.275774 L29.1118871,311.225646 L27.3975052,311.225646 L27.3975052,316.978817 L24.7365321,316.978817 L24.7365321,315.694609 L23.3492501,315.694609 L23.3492501,314.306275 L21.9083279,314.306275 L21.9083279,312.266897 L20.3411935,312.266897 L20.3411935,309.889901 L18.7214708,309.889901 L18.7214708,306.871327 L17.3752077,306.871327 L17.3752077,304 L15.7765203,304 Z M17.8800564,348.267864 L19.4156377,348.267864 L19.4156377,345.238772 L23.4954458,345.238772 L23.4954458,346.670229 L26.4519658,346.670229 L26.4519658,348.004922 L32.3734197,348.004922 L32.3734197,346.670229 L35.9283956,346.670229 L35.9283956,345.271377 L40.1354677,345.271377 L40.1354677,348.267864 L41.5122321,348.267864 L41.5343192,352.034246 L40.3763226,352.034246 L40.3763226,353.643451 L38.8628284,353.643451 L38.8628284,355.263173 L36.0651255,355.263173 L36.0651255,353.853804 L33.0044805,353.853804 L33.0044805,352.737878 L31.3100822,352.737878 L31.3100822,351.56095 L28.3030775,351.56095 L28.3030775,352.748396 L26.7780138,352.748396 L26.7780138,353.853804 L24.0328993,353.853804 L24.0328993,355.263173 L20.6462063,355.263173 L20.6462063,353.643451 L19.5302804,353.643451 L19.5302804,352.034246 L17.8800564,352.034246 L17.8800564,348.267864 Z"></path>
                    </g>
                </g>
            </g>
        </svg>