<svg xmlns="http://www.w3.org/2000/svg" viewBox="0 0 50 41">
            <g id="Artboard" transform="translate(-529.000000, -1252.000000)">
                <g id="Row02" transform="translate(529.000000, 16.000000)">
                    <g id="Game-Modes" transform="translate(0.000000, 852.000000)">
                        <g id="Competitive-Play" transform="translate(0.000000, 384.000000)">
                            <path d="M0,5.25392308 L7.10769231,5.25392308 C7.21076923,5.25392308 7.30692308,5.30238462 7.36923077,5.38469231 C12.8,10.8208462 18.2361538,16.2539231 23.6769231,21.6846923 C23.8715385,21.8608462 23.9761538,22.1154615 23.9615385,22.377 L23.9615385,26.7693077 C23.9423077,27.1777692 24.0476923,27.5823846 24.2615385,27.9300769 C24.4507692,28.3116154 24.9130769,28.4654615 25.2930769,28.2762308 C25.4423077,28.2016154 25.5638462,28.0808462 25.6384615,27.9300769 C25.7984615,27.6816154 25.8907692,27.3954615 25.9076923,27.1000769 C25.9846154,26.177 25.9076923,25.2462308 25.9076923,24.3231538 L25.9076923,22.1923846 C25.9007692,22.0485385 25.9607692,21.9093077 26.0692308,21.8154615 C26.7076923,21.1923846 27.3307692,20.5616154 27.9538462,19.9385385 L42.5384615,5.38469231 C42.5953846,5.31623077 42.68,5.277 42.7692308,5.277 L49.7615385,5.277 L49.8769231,5.277 C49.9153846,5.277 49.8230769,5.34623077 49.8,5.377 C48.0615385,7.11546154 46.3384615,8.86161538 44.5923077,10.5846923 C42.6076923,12.5308462 40.6538462,14.5077692 38.6846154,16.4616154 C38.3123077,16.8093077 37.9584615,17.177 37.6230769,17.5616154 C37.3938462,17.8085385 37.2561538,18.1254615 37.2307692,18.4616154 C37.2223077,18.6308462 37.2538462,18.7993077 37.3230769,18.9539231 C37.3684615,19.0316154 37.3492308,19.1308462 37.2769231,19.1846923 L34.2,22.2616154 C33.9261538,22.5100769 33.6884615,22.7946923 33.4923077,23.1077692 C33.1907692,23.6216154 33.2692308,24.2731538 33.6846154,24.7000769 C33.8476923,24.8993077 34.0223077,25.0900769 34.2076923,25.2693077 L36.6,27.677 C36.6823077,27.7516154 36.7269231,27.8585385 36.7230769,27.9693077 L36.7230769,35.3385385 L36.7230769,35.4300769 C36.7230769,35.4616154 36.7230769,35.5077692 36.6384615,35.4300769 L36.6,35.3846923 L30,28.7923846 C29.6461538,28.4385385 29.2769231,28.0916154 28.9230769,27.7377692 C28.8461538,27.6616154 28.8076923,27.6693077 28.7307692,27.7377692 C27.7461538,28.6616154 26.8,29.6300769 25.8615385,30.5916154 C25.4576923,31.0023846 24.8346154,31.1016154 24.3230769,30.8385385 C24.2453846,30.7931538 24.1753846,30.7362308 24.1153846,30.6693077 L21.9769231,28.5385385 C21.7153846,28.277 21.4384615,28.0231538 21.2076923,27.7693077 C21.1153846,27.677 21.0692308,27.6846923 20.9769231,27.7693077 C19.6307692,29.0693077 18.3153846,30.4077692 16.9923077,31.7308462 L13.2846154,35.3846923 C13.2846154,35.3846923 13.2307692,35.477 13.1846154,35.4539231 C13.1384615,35.4300769 13.1846154,35.377 13.1846154,35.3308462 L13.1846154,27.9077692 C13.1807692,27.8146923 13.2176923,27.7254615 13.2846154,27.6616154 L15.9,25.0231538 C16.1376923,24.8039231 16.3330769,24.5431538 16.4769231,24.2539231 C16.6869231,23.7646923 16.5838462,23.1985385 16.2153846,22.8154615 C15.9307692,22.4808462 15.6276923,22.1616154 15.3076923,21.8616154 L12.6384615,19.2000769 C12.5923077,19.1539231 12.5307692,19.1154615 12.5769231,19.0231538 C12.79,18.5308462 12.6838462,17.9593077 12.3076923,17.577 C11.94,17.1508462 11.55,16.7454615 11.1384615,16.3616154 C9.51538462,14.7385385 7.90769231,13.1000769 6.26153846,11.5000769 C4.19230769,9.477 2.16923077,7.41546154 0.115384615,5.38469231 C0.0792307692,5.35315385 0.0407692308,5.32546154 0,5.30007692 L0,5.25392308 Z"></path>
                            <path d="M32.0920769,33.3383846 L28.9382308,30.1845385 C28.8613077,30.1076154 28.8074615,30.0999231 28.739,30.1845385 C28.4074615,30.5460769 28.0536154,30.8768462 27.7159231,31.2306923 C27.1305385,31.8468462 26.5236154,32.4306923 25.9228462,33.0314615 C25.8482308,33.1122308 25.7597692,33.1799231 25.6620769,33.2306923 C25.0743846,33.5014615 24.3828462,33.3914615 23.9074615,32.9537692 C23.0228462,32.0153077 22.0920769,31.1153077 21.1920769,30.1922308 C21.0920769,30.0922308 21.0459231,30.0999231 20.9543846,30.1922308 L17.8228462,33.3153077 C17.7459231,33.3922308 17.7459231,33.4383846 17.8228462,33.5153077 L19.3613077,35.0537692 L24.869,40.5691538 C24.969,40.6691538 25.0151538,40.6622308 25.1074615,40.5691538 L28.4382308,37.2314615 L32.1151538,33.5383846 L32.2005385,33.4468462 C32.1805385,33.3968462 32.1413077,33.3576154 32.0920769,33.3383846"></path>
                            <path d="M13.6309231,22.9845385 L13.0770769,22.4691538 C12.1078462,21.4845385 11.1155385,20.523 10.154,19.5306923 C9.19246154,18.5383846 8.27707692,17.6383846 7.33092308,16.7076154 C7.24630769,16.623 4.254,13.6306923 4.10784615,13.5691538 C3.95861538,13.4706923 3.75861538,13.5114615 3.66015385,13.6599231 C3.63938462,13.6906923 3.624,13.7253077 3.61553846,13.7614615 C3.55938462,13.9299231 3.534,14.1068462 3.53861538,14.2845385 L3.53861538,18.9999231 C3.52938462,19.4399231 3.69784615,19.8645385 4.00784615,20.1776154 C5.31553846,21.5076154 9.56938462,25.7614615 10.9309231,27.1006923 C11.0001538,27.1691538 11.0386154,27.1537692 11.1001538,27.1006923 L11.6770769,26.5076154 L13.6309231,24.4845385 C13.8232308,24.3014615 13.9355385,24.0499231 13.9463077,23.7845385 C13.9624615,23.4845385 13.8470769,23.193 13.6309231,22.9845385"></path>
                            <path d="M46.2154615,14.7232308 C46.2300769,14.4663077 46.217,14.2086154 46.177,13.954 C46.1154615,13.654 45.9308462,13.454 45.5846923,13.654 C45.5100769,13.7093846 45.4423846,13.774 45.3846923,13.8463077 L41.6923846,17.5616923 L38.4616154,20.8232308 L36.3000769,22.9770769 C35.8885385,23.3447692 35.8531538,23.9778462 36.2216154,24.3893846 C36.2300769,24.3986154 36.2377692,24.4063077 36.2462308,24.4155385 C37.1000769,25.3078462 37.9693077,26.1924615 38.8308462,27.0847692 C38.8846923,27.1463077 38.9308462,27.1463077 38.9846923,27.0847692 L39.3077692,26.7693846 C40.5077692,25.5693846 44.5231538,21.5078462 45.7231538,20.3001538 C46.0562308,19.9747692 46.2393077,19.5270769 46.2308462,19.0616923 L46.2308462,16.7078462 C46.2208462,16.0463077 46.2154615,15.3847692 46.2154615,14.7232308"></path>
                            <path d="M23.5693077,9.6 C23.5693077,9.49230769 23.4077692,9.36923077 23.2846923,9.25384615 C22.9000769,8.89230769 22.6077692,8.48461538 22.2308462,8.13076923 C18.6231538,4.52307692 17.9154615,3.76153846 14.3077692,0.146153846 C14.3077692,0.146153846 14.2693077,0.0846153846 14.2308462,0.0538461538 C14.1923846,0.0230769231 14.177,0 14.1385385,0 C14.1000769,0 14.1385385,0.0692307692 14.1385385,0.107692308 L14.1385385,3.65384615 L14.1385385,7.2 C14.1346923,7.27230769 14.1623846,7.34230769 14.2154615,7.39230769 L18.5539231,11.7384615 C18.8554615,12.4684615 18.9739231,13.26 18.9000769,14.0461538 C19.6693077,14.8153846 22.1000769,17.1692308 23.5846923,18.4615385 L23.5693077,9.6 Z"></path>
                            <path d="M26.0381538,18.4615385 C27.5235385,17.1692308 29.9381538,14.8 30.7150769,14.0461538 C30.6381538,13.2607692 30.7550769,12.4684615 31.0543077,11.7384615 L35.3843077,7.4 C35.4373846,7.35076923 35.4658462,7.28 35.4612308,7.20769231 L35.4612308,3.66153846 L35.4612308,0.115384615 L35.4612308,0.00769230769 C35.4612308,-0.00769230769 35.3843077,-1.45283091e-17 35.3843077,0.0538461538 C35.3843077,0.107692308 35.3389231,0.115384615 35.3081538,0.146153846 C31.6996923,3.76153846 30.992,4.52307692 27.3843077,8.13846154 C27.0081538,8.51538462 26.7235385,8.90769231 26.3389231,9.26153846 C26.2150769,9.37692308 26.0543077,9.5 26.0543077,9.60769231 L26.0381538,18.4615385 Z"></path>
                        </g>
                    </g>
                </g>
            </g>
        </svg>