<svg xmlns="http://www.w3.org/2000/svg" viewBox="0 0 40 40">
            <g>
                <rect x="2.43" y="13.22" width="35" height="5.78" rx="2"></rect>
                <rect x="11.34" y="4.64" width="26.08" height="5.78" rx="2"></rect>
                <rect x="2.43" y="21.81" width="35" height="5.78" rx="2"></rect>
                <rect x="2.43" y="30.39" width="35" height="5.78" rx="2"></rect>
                <g id="Check">
                    <path d="M9,4.6a.8.8,0,0,0-.59.27h0L5.16,8.23,3.81,6.84h0a.78.78,0,0,0-.59-.27.82.82,0,0,0-.81.83.81.81,0,0,0,.25.6h0l2.25,2.3a.36.36,0,0,0,.51,0L9.59,6.05V6a.81.81,0,0,0,.26-.6A.83.83,0,0,0,9,4.6Z"></path>
                </g>
            </g>
        </svg>