<svg xmlns="http://www.w3.org/2000/svg" viewBox="0 0 50 50">
            <g id="Artboard" transform="translate(-529.000000, -978.000000)">
                <g id="Row02" transform="translate(529.000000, 16.000000)">
                    <g id="Game-Modes" transform="translate(0.000000, 852.000000)">
                        <g id="VS-AI" transform="translate(0.000000, 110.000000)">
                            <path d="M45.13,37.1416038 L49.0639623,37.1416038 L49.0639623,8.22650943 C48.88,3.74726415 45.28,0.163301887 40.7998113,9.43396226e-05 L20.63,9.43396226e-05 L30.2516981,9.82084906 C32.7366038,8.87933962 35.5158491,10.1293396 36.4573585,12.6142453 C37.3988679,15.0991509 36.1479245,17.8765094 33.6639623,18.8189623 C31.1790566,19.7604717 28.4007547,18.5095283 27.4592453,16.0246226 C27.0177358,14.8604717 27.0450943,13.5699057 27.5356604,12.4246226 L15.2998113,9.43396226e-05 L7.35641509,9.43396226e-05 C3.04509434,9.43396226e-05 0.00735849057,3.91518868 0.00735849057,8.22650943 L0.00735849057,41.6699057 C-0.168113208,45.5736792 2.8545283,48.8793396 6.75924528,49.0548113 C6.95830189,49.0642453 7.15735849,49.0651887 7.35641509,49.0566981 L15.1016981,49.0566981 L15.1016981,35.8491509 L12.4979245,33.4906604 C11.8186792,33.7972642 11.0828302,33.9576415 10.3375472,33.9623585 C7.65641509,33.9680189 5.47245283,31.8133019 5.44132075,29.1321698 C5.44037736,26.4746226 7.59415094,24.3199057 10.2516981,24.3199057 C12.9083019,24.3189623 15.0630189,26.4717925 15.0639623,29.1293396 L15.0639623,29.1321698 C15.1290566,29.6482075 15.1101887,30.1699057 15.0073585,30.6783962 L18.875283,34.3114151 L18.875283,49.0566981 L23.5922642,49.0566981 L23.5922642,31.4057547 L16.0450943,23.9151887 C15.4139623,24.1642453 14.7422642,24.2916038 14.0639623,24.2925472 C11.38,24.3029245 9.18943396,22.1463208 9.15830189,19.4623585 C9.15830189,16.8048113 11.3120755,14.6510377 13.9696226,14.6510377 C16.6271698,14.6510377 18.7809434,16.8048113 18.7809434,19.4623585 C18.8507547,20.0463208 18.8130189,20.6378302 18.6677358,21.2076415 L27.3658491,29.8585849 L27.3658491,49.0566981 L40.7998113,49.0566981 C45.1101887,49.0566981 49.0639623,45.9812264 49.0639623,41.6699057 L49.0639623,40.8868868 L43.5733962,40.8868868 L35.7809434,33.2170755 C35.18,33.4548113 34.539434,33.5765094 33.8941509,33.575566 C31.2215094,33.6010377 29.0328302,31.4557547 29.0073585,28.7831132 C28.9818868,26.1104717 31.1271698,23.9227358 33.7998113,23.8963208 C36.4724528,23.8708491 38.6611321,26.0161321 38.6866038,28.6887736 L38.6866038,28.7736792 C38.7224528,29.3868868 38.639434,30.0029245 38.4413208,30.585 L45.13,37.1416038 Z"></path>
                        </g>
                    </g>
                </g>
            </g>
        </svg>