<svg viewBox="0 0 256 178.4">
  <title>sportsmanship</title>
  <g id="Page-1">
    <g id="Endorsements">
      <g id="Sportsmanship-2" data-name="Sportsmanship">
        <polygon id="Fill-1" points="32.05 92.63 21.41 103.1 36.6 118.06 47.25 107.58 32.05 92.63"></polygon>
        <polygon id="Fill-2" points="208.75 0 177.96 27.1 128.3 27.1 128.3 27.19 128 27.49 108.1 47.08 94.33 60.63 93.9 61.06 120.88 69.61 125.91 71.21 129.26 67.91 136.65 60.63 180.66 64.72 209.14 92.66 256 46.52 208.75 0"></polygon>
        <polygon id="Fill-3" points="77.63 117.9 74.73 115.05 62.44 102.94 59.87 105.47 41.84 123.22 57.03 138.18 75.06 120.43 77.63 117.9"></polygon>
        <polygon id="Fill-4" points="47.25 0 0 46.52 36.36 82.32 53.68 99.37 56.25 96.85 62.44 90.75 68.63 96.85 80.92 108.95 82.86 110.86 89.06 116.96 101.78 129.48 104.25 131.92 110.44 138.01 104.25 144.11 101.68 146.63 101.64 146.68 133.5 178.05 148.7 163.09 131.01 145.68 135.83 140.94 159.5 164.24 174.69 149.28 151.03 125.98 155.73 121.36 185.12 150.3 200.31 135.34 170.92 106.4 175.52 101.86 205.05 130.93 220.25 115.98 190.72 86.91 176.6 73 139.93 69.6 135.45 74 132.1 77.31 128.31 81.03 123.22 79.41 113.92 76.47 91.21 69.27 77.57 64.94 81.95 60.63 87.7 54.97 101.91 40.98 116 27.1 78.05 27.1 47.25 0"></polygon>
        <polygon id="Fill-5" points="95.49 140.54 98.06 138.01 95.59 135.58 82.86 123.05 80.3 125.58 62.27 143.33 77.46 158.29 95.45 140.58 95.49 140.54"></polygon>
        <polygon id="Fill-6" points="82.7 163.45 97.89 178.4 108.53 167.93 93.34 152.97 82.7 163.45"></polygon>
      </g>
    </g>
  </g>
</svg>