<svg viewBox="0 0 207.3 238.6">
      <g>
        <path d="M202.78,56.81h0c-3-2.28-86.39-50-90.13-52.27S106.16.3,103.65,0c-2.16,0-4,1.51-9,4.54-3.74,2.28-87.14,50-90.13,52.27C.28,59.81,0,59.81,0,65.9V170.43c0,7.77,1.52,9.09,4.51,11.36s86.39,50,90.13,52.27,6.51,4.26,9,4.54c2.16,0,4-1.51,9-4.54,3.74-2.28,87.14-50,90.13-52.27s4.51-3.59,4.51-11.36V65.9C207.29,59.84,207,59.9,202.78,56.81Zm.45,111.86c0,7.52-1.46,8.8-4.33,11s-83,48.29-86.59,50.49c-4.78,2.92-6.59,4.39-8.66,4.39-2.41-.28-5.07-2.19-8.66-4.39S11.27,181.9,8.4,179.67s-4.33-3.5-4.33-11v-101c0-5.86.26-5.81,4.33-8.74,2.87-2.2,83-48.26,86.6-50.46,4.78-2.92,6.58-4.39,8.66-4.39,2.4.28,5.07,2.19,8.66,4.39S196,56.73,198.91,58.93c4.07,2.93,4.32,2.88,4.32,8.74Z" transform="translate(-0.01 0)" fill="#f9a32c"></path>
        <path d="M193.07,63.15c-2.69-2-77.91-44.77-81.28-46.82s-5.87-3.83-8.14-4c-2,0-3.65,1.36-8.13,4.08-3.38,2-78.6,44.77-81.3,46.82-3.82,2.73-4.07,2.57-4.07,8v93.92c0,7,1.37,8.17,4.07,10.21s77.92,44.92,81.29,47,5.87,3.83,8.13,4.08c2,0,3.64-1.36,8.13-4.08,3.37-2.05,78.6-44.92,81.29-47s4.07-3.22,4.07-10.21V71.17C197.14,65.72,196.9,65.88,193.07,63.15ZM138.71,105l-.06,0v16.67a8.61,8.61,0,0,1-1.08,4.3,103.06,103.06,0,0,1-31.78,35.65,3.29,3.29,0,0,1-4.39,0,103.22,103.22,0,0,1-31.55-35.21,9.81,9.81,0,0,1-1.2-5c0-10.51.25-21,0-31.54-.2-7.59,5.85-8.75,11-10,8.78-2.18,16.79-3.83,25.72-3.9,8.32,0,20.76,2.91,25.34,4.31,3.44,1,7.4,2.55,7.75,6,.3,2.9.22,5.85.25,8.77Z" transform="translate(-0.01 0)" fill="#f9a32c"></path>
      </g>
    </svg>