<svg xmlns="http://www.w3.org/2000/svg" viewBox="0 0 40 40">
            <title>WorkshopShare</title>
            <g>
                <path d="M28.71,15.38a5.63,5.63,0,1,0-5.63-5.63A5.63,5.63,0,0,0,28.71,15.38Zm0-8.54a2.91,2.91,0,1,1-2.92,2.91A2.91,2.91,0,0,1,28.71,6.84Z"></path>
                <path d="M28.63,24.62a5.63,5.63,0,1,0,5.63,5.63A5.64,5.64,0,0,0,28.63,24.62Zm0,8.54a2.91,2.91,0,1,1,2.91-2.91A2.91,2.91,0,0,1,28.63,33.16Z"></path>
                <path d="M6,18.3,7,18.81a5.18,5.18,0,0,0-.13,1.37l1.77-.68a3.91,3.91,0,0,1,3.47-3.34,2.55,2.55,0,0,1,.39,0,3.83,3.83,0,0,1,1.82.45l.22-1.51a.47.47,0,0,0,.06-.2l.08-1.22a.51.51,0,0,0-.4-.53L13.56,13a.51.51,0,0,0-.58.32l-.41,1.11h0l-.56,0a5.27,5.27,0,0,0-1.05.2l-.69-1a.5.5,0,0,0-.64-.16l-.69.35a.5.5,0,0,0-.25.61L9,15.61a5.6,5.6,0,0,0-1.17,1.26.56.56,0,0,0-.18-.07l-1.21-.19a.51.51,0,0,0-.56.35l-.23.74A.5.5,0,0,0,6,18.3Z"></path>
                <path d="M17.11,24.91a.49.49,0,0,0,.65-.09l.51-.58a.51.51,0,0,0,0-.66l-.77-.9A5.59,5.59,0,0,0,18,21.23l1.15-.11a.51.51,0,0,0,.46-.48l0-.77a.5.5,0,0,0-.4-.52l-1.18-.22a5.5,5.5,0,0,0-.61-1.79l.84-.76a.5.5,0,0,0,.08-.65L18,15.29a.49.49,0,0,0-.63-.17l-1.1.53-.09,0A5.29,5.29,0,0,0,15.09,15l-.27,1.87a3.9,3.9,0,0,1-.1,6.38l1.27.91a.34.34,0,0,0,.09.08Z"></path>
                <path d="M14.23,23.53a3.61,3.61,0,0,1-1.32.38l-.39,0h0a3.88,3.88,0,0,1-3.87-3.51c0-.12,0-.25,0-.37l-1.41.54a.61.61,0,0,0-.18.05L6,21.18a.51.51,0,0,0-.26.61l.24.73a.5.5,0,0,0,.56.34l1.06-.18a5.79,5.79,0,0,0,1.24,1.58l-.43.95a.51.51,0,0,0,.19.63l.65.41a.49.49,0,0,0,.65-.09l.72-.84a5.89,5.89,0,0,0,1.84.35l.33,1a.49.49,0,0,0,.56.34l.76-.12a.5.5,0,0,0,.42-.51l0-1.09a6.06,6.06,0,0,0,1.31-.69Z"></path>
                <circle cx="12.55" cy="19.98" r="2.1"></circle>
                <path d="M17.35,14.77a.85.85,0,0,1,.38-.09.91.91,0,0,1,.74.39l.43.64a.89.89,0,0,1-.14,1.16l-.62.56a5.94,5.94,0,0,1,.38,1l6.05-3.82a6.53,6.53,0,0,1-2-3.54L16,15l.38.25Z"></path>
                <path d="M24.68,25.46l-6.17-3.81a5.31,5.31,0,0,1-.37,1l.61.7a.91.91,0,0,1,0,1.17l-.51.58a.87.87,0,0,1-.66.3.93.93,0,0,1-.49-.14l-.68-.44-.34.3,6.4,4A7.2,7.2,0,0,1,24.68,25.46Z"></path>
            </g>
        </svg>