<svg xmlns="http://www.w3.org/2000/svg" viewBox="0 0 40 40">
            <title>WorkshopControl</title>
            <g>
                <path d="M20,33.1a4,4,0,1,1,4-4A4,4,0,0,1,20,33.1Zm0-5.8a1.8,1.8,0,1,0,1.8,1.8A1.79,1.79,0,0,0,20,27.3Zm.1-3.6a8.52,8.52,0,0,0-2.3.4V1.7a.22.22,0,0,1,.2-.2h4a.22.22,0,0,1,.2.2V24.1A7.79,7.79,0,0,0,20.1,23.7Zm0,10.8a4.64,4.64,0,0,0,2.1-.4v4.2a.22.22,0,0,1-.2.2H18a.22.22,0,0,1-.2-.2V34.1A5.87,5.87,0,0,0,20.1,34.5ZM33.2,6.9a4,4,0,1,1-4,4A4,4,0,0,1,33.2,6.9Zm0,5.8a1.8,1.8,0,1,0-1.8-1.8A1.79,1.79,0,0,0,33.2,12.7Zm0,3.6a8.52,8.52,0,0,0,2.3-.4V38.4a.22.22,0,0,1-.2.2H31.4a.22.22,0,0,1-.2-.2V15.9A5.44,5.44,0,0,0,33.2,16.3Zm0-10.8a4.64,4.64,0,0,0-2.1.4V1.7a.22.22,0,0,1,.2-.2h3.9a.22.22,0,0,1,.2.2V5.9A5.38,5.38,0,0,0,33.2,5.5ZM6.9,6.9a4,4,0,1,1-4,4A4,4,0,0,1,6.9,6.9Zm0,5.8a1.8,1.8,0,1,0-1.8-1.8A1.79,1.79,0,0,0,6.9,12.7Zm0,3.6a8.52,8.52,0,0,0,2.3-.4V38.4a.22.22,0,0,1-.2.2H5.1a.22.22,0,0,1-.2-.2V15.9A5.44,5.44,0,0,0,6.9,16.3Zm0-10.8a4.64,4.64,0,0,0-2.1.4V1.7A.22.22,0,0,1,5,1.5H8.9a.22.22,0,0,1,.2.2V5.9A5.38,5.38,0,0,0,6.9,5.5Zm0,1.4a4,4,0,1,1-4,4A4,4,0,0,1,6.9,6.9Zm0,5.8a1.8,1.8,0,1,0-1.8-1.8A1.79,1.79,0,0,0,6.9,12.7Zm0,3.6a8.52,8.52,0,0,0,2.3-.4V38.4a.22.22,0,0,1-.2.2H5.1a.22.22,0,0,1-.2-.2V15.9A5.44,5.44,0,0,0,6.9,16.3Zm0-10.8a4.64,4.64,0,0,0-2.1.4V1.7A.22.22,0,0,1,5,1.5H8.9a.22.22,0,0,1,.2.2V5.9A5.38,5.38,0,0,0,6.9,5.5Z"></path>
                <path d="M20,33.1a4,4,0,1,1,4-4A4,4,0,0,1,20,33.1Zm0-5.8a1.8,1.8,0,1,0,1.8,1.8A1.79,1.79,0,0,0,20,27.3Zm.1-3.6a8.52,8.52,0,0,0-2.3.4V1.7a.22.22,0,0,1,.2-.2h4a.22.22,0,0,1,.2.2V24.1A7.79,7.79,0,0,0,20.1,23.7Zm0,10.8a4.64,4.64,0,0,0,2.1-.4v4.2a.22.22,0,0,1-.2.2H18a.22.22,0,0,1-.2-.2V34.1A5.87,5.87,0,0,0,20.1,34.5ZM33.2,6.9a4,4,0,1,1-4,4A4,4,0,0,1,33.2,6.9Zm0,5.8a1.8,1.8,0,1,0-1.8-1.8A1.79,1.79,0,0,0,33.2,12.7Zm0,3.6a8.52,8.52,0,0,0,2.3-.4V38.4a.22.22,0,0,1-.2.2H31.4a.22.22,0,0,1-.2-.2V15.9A5.44,5.44,0,0,0,33.2,16.3Zm0-10.8a4.64,4.64,0,0,0-2.1.4V1.7a.22.22,0,0,1,.2-.2h3.9a.22.22,0,0,1,.2.2V5.9A5.38,5.38,0,0,0,33.2,5.5Z"></path>
            </g>
        </svg>